<svg width="35" height="33" viewBox="0 0 35 33" fill="none" xmlns="http://www.w3.org/2000/svg">
<path id="arrowLeft Copy" fill-rule="evenodd" clip-rule="evenodd" d="M16.7879 0.439875C16.2029 -0.146625 15.2519 -0.146625 14.6669 0.439875L0.878892 14.2279C-0.292608 15.3994 -0.292608 17.2984 0.878892 18.4699L14.6669 32.2594C15.2519 32.8444 16.2029 32.8444 16.7879 32.2594C17.3744 31.6729 17.3744 30.7234 16.7879 30.1369L4.62889 17.9779H28.1984C29.0279 17.9779 29.6984 17.3074 29.6984 16.4779C29.6984 15.6499 29.0279 14.9779 28.1984 14.9779H4.36939L16.7879 2.56087C17.3744 1.97437 17.3744 1.02487 16.7879 0.439875ZM32.6982 17.9786C33.5277 17.9786 34.1982 17.3066 34.1982 16.4786C34.1982 15.6506 33.5277 14.9786 32.6982 14.9786C31.8687 14.9786 31.1982 15.6506 31.1982 16.4786C31.1982 17.3066 31.8687 17.9786 32.6982 17.9786Z" fill="#039974"/>
</svg>
